<mxfile host="app.diagrams.net" modified="2024-01-12T12:02:56.144Z" agent="Mozilla/5.0 (Windows NT 10.0; Win64; x64) AppleWebKit/537.36 (KHTML, like Gecko) Chrome/120.0.0.0 Safari/537.36 OPR/106.0.0.0" etag="PHKvhIhKlRrDDsj4ib8w" version="22.1.18" type="device">
  <diagram name="Сторінка-1" id="OFQp5IKE5h6U2zEbLhx_">
    <mxGraphModel dx="952" dy="603" grid="1" gridSize="10" guides="1" tooltips="1" connect="1" arrows="1" fold="1" page="1" pageScale="1" pageWidth="827" pageHeight="1169" math="0" shadow="0">
      <root>
        <mxCell id="0" />
        <mxCell id="1" parent="0" />
      </root>
    </mxGraphModel>
  </diagram>
</mxfile>
